<?xml version="1.0" standalone="no"?>
<!DOCTYPE svg PUBLIC "-//W3C//DTD SVG 20010904//EN"
 "http://www.w3.org/TR/2001/REC-SVG-20010904/DTD/svg10.dtd">
<svg version="1.0" xmlns="http://www.w3.org/2000/svg"
 width="200.000000pt" height="200.000000pt" viewBox="0 0 200.000000 200.000000"
 preserveAspectRatio="xMidYMid meet">

<g transform="translate(0.000000,200.000000) scale(0.100000,-0.100000)"
fill="white" stroke="none">
<path d="M953 1897 c-7 -14 -15 -59 -19 -100 l-7 -75 29 -5 c16 -3 77 -9 135
-12 82 -5 109 -4 115 6 4 7 11 45 14 83 4 39 10 78 14 87 8 18 -12 21 -184 35
-85 6 -86 6 -97 -19z m212 -23 c31 -5 31 -6 28 -62 -5 -77 -8 -84 -36 -77 -23
6 -98 13 -159 14 -26 1 -28 4 -28 40 0 21 3 53 6 71 l7 32 76 -7 c42 -3 90 -8
106 -11z"/>
<path d="M1368 1854 c-27 -8 -48 -19 -48 -24 0 -16 21 -22 35 -10 13 11 112
17 122 7 2 -3 5 -31 6 -63 l2 -59 -67 -5 c-62 -5 -82 -12 -84 -28 0 -4 -6 -33
-13 -66 -9 -39 -10 -61 -3 -68 14 -14 32 -1 32 24 0 11 5 38 12 59 l11 39 58
0 c51 0 61 3 75 25 20 31 20 101 0 148 -14 34 -18 37 -53 36 -21 0 -59 -7 -85
-15z"/>
<path d="M1671 1831 c-18 -12 -7 -17 67 -31 65 -13 72 -22 51 -61 -8 -16 -19
-20 -57 -18 -116 4 -120 3 -132 -42 -12 -43 -7 -75 9 -64 5 3 12 1 15 -4 5 -7
55 -15 159 -26 11 -1 17 4 15 14 -2 12 -26 20 -86 30 -45 8 -82 19 -82 25 1
29 20 37 93 40 43 1 79 5 81 7 2 2 13 23 25 47 27 54 19 67 -47 76 -26 3 -58
8 -72 11 -14 3 -31 1 -39 -4z"/>
<path d="M902 1669 c3 -9 30 -17 71 -23 55 -8 67 -12 67 -28 0 -10 7 -18 15
-18 8 0 15 6 15 14 0 12 14 14 65 12 43 -1 69 2 76 10 12 15 -11 20 -131 29
-41 3 -99 8 -129 12 -43 5 -53 3 -49 -8z"/>
<path d="M924 1578 c-10 -16 1 -19 95 -25 60 -4 90 -10 88 -17 -4 -13 -61 -14
-128 -2 l-45 8 -13 -42 c-7 -23 -10 -44 -7 -47 7 -7 121 -20 165 -19 20 1 37
6 39 11 4 14 -33 23 -105 24 -55 1 -63 4 -63 20 0 17 6 18 64 14 79 -7 112 1
127 28 16 30 4 36 -81 44 -41 3 -87 8 -102 10 -16 2 -31 -1 -34 -7z"/>
<path d="M1547 1554 c-10 -10 2 -24 21 -24 36 0 42 -13 29 -57 -7 -23 -16 -45
-20 -49 -10 -10 -9 -52 2 -58 9 -6 31 42 51 107 8 24 18 37 29 37 24 0 31 -9
21 -29 -31 -59 -42 -131 -20 -131 4 0 10 8 14 18 3 9 14 42 25 72 l18 55 58 0
c74 1 85 21 18 31 -26 5 -50 9 -53 9 -8 2 -100 15 -146 21 -22 2 -43 2 -47 -2z"/>
<path d="M1323 1439 c-27 -10 -30 -27 -7 -36 19 -7 37 9 32 30 -2 11 -9 12
-25 6z"/>
<path d="M630 1386 c0 -13 7 -43 16 -67 8 -24 17 -51 19 -59 2 -8 13 -40 23
-72 19 -51 19 -58 5 -78 -17 -24 -8 -54 16 -56 6 -1 14 -2 19 -3 4 -1 -12 -13
-36 -27 -74 -44 -38 -41 43 4 17 9 60 18 97 20 37 2 65 8 62 13 -3 5 0 9 6 9
6 0 8 5 5 10 -3 6 -23 9 -43 9 -30 -2 -32 -3 -9 -6 44 -7 31 -18 -23 -18 -40
0 -50 3 -54 20 -5 17 14 39 34 40 15 0 80 66 80 80 0 23 -101 117 -172 161
-40 24 -76 44 -80 44 -4 0 -8 -11 -8 -24z m92 -44 c47 -23 140 -118 136 -138
-4 -20 -66 -66 -82 -61 -6 2 -12 17 -14 33 -2 16 -8 33 -13 39 -6 6 -8 -7 -5
-38 6 -60 -8 -60 -29 1 -9 26 -22 58 -27 72 -10 24 -18 48 -38 111 l-9 31 27
-18 c15 -10 39 -24 54 -32z m19 -243 c11 -5 17 -14 15 -18 -9 -13 -56 0 -56
15 0 17 14 18 41 3z"/>
<path d="M282 1301 c-26 -7 -26 -9 -18 -66 15 -94 56 -194 88 -214 11 -7 53
-13 94 -13 62 0 84 5 139 30 49 23 65 36 65 51 0 12 6 21 13 21 21 0 -124 91
-213 132 -128 60 -143 65 -168 59z m189 -99 c84 -42 155 -82 156 -88 3 -7 -16
-7 -59 2 -34 7 -64 11 -67 8 -9 -9 14 -22 47 -27 19 -3 36 -8 38 -10 11 -11
-50 -37 -108 -47 -84 -15 -132 2 -154 55 -13 32 -44 162 -44 186 0 15 23 6
191 -79z"/>
<path d="M930 1121 c-52 -9 -25 -18 55 -20 85 -2 101 -4 171 -31 105 -39 238
-121 316 -194 66 -62 128 -170 128 -221 0 -28 9 -55 19 -55 4 0 5 21 1 48 -7
52 -30 122 -41 122 -4 0 -10 11 -13 25 -7 27 -132 155 -151 155 -7 0 -20 9
-31 21 -10 12 -32 28 -49 36 -16 9 -32 19 -35 23 -9 14 -118 59 -177 74 -71
18 -147 24 -193 17z"/>
<path d="M280 952 c-55 -34 -129 -122 -164 -193 -42 -86 -50 -142 -31 -219
l14 -55 -1 100 c-1 94 1 104 32 165 22 42 59 91 107 138 41 41 73 75 71 77 -2
1 -14 -4 -28 -13z"/>
<path d="M660 885 c-19 -23 -8 -26 20 -5 19 15 21 20 9 20 -9 0 -22 -7 -29
-15z"/>
<path d="M1155 860 c3 -5 14 -10 24 -10 9 0 22 -5 29 -12 9 -9 12 -9 12 0 0 7
-12 17 -26 22 -33 13 -47 13 -39 0z"/>
<path d="M668 792 c-29 -51 -107 -132 -109 -113 -2 11 -5 25 -9 39 -9 27 -14
-67 -7 -133 7 -68 16 -97 55 -179 14 -28 -59 40 -74 70 -33 63 -55 100 -50 82
4 -14 0 -18 -20 -18 -24 0 -24 1 -10 29 9 16 12 31 9 35 -8 7 -72 -65 -73 -81
0 -16 44 -17 72 -2 13 7 24 7 30 1 6 -6 -2 -11 -22 -15 -46 -10 -63 -76 -35
-140 6 -16 4 -18 -16 -17 -41 4 -48 1 -79 -31 -31 -33 -37 -53 -20 -64 5 -3
10 -16 10 -28 -1 -33 17 -128 29 -159 17 -45 43 -68 76 -68 l30 0 -30 18 c-32
20 -58 47 -62 66 -1 6 -7 29 -12 50 -6 26 -6 46 0 58 6 11 6 18 0 18 -5 0 -11
6 -14 14 -5 11 1 12 26 6 18 -5 55 -11 83 -13 42 -4 55 -1 77 19 15 13 27 28
27 34 0 21 25 4 28 -18 2 -12 10 -22 18 -22 8 0 38 -24 66 -52 l51 -53 -7 34
-6 34 35 -6 c37 -6 42 1 24 35 -10 18 -9 20 6 15 9 -4 49 -10 88 -13 40 -4 78
-11 85 -17 6 -5 12 -6 12 -3 0 4 10 -2 22 -14 12 -11 34 -20 50 -20 24 0 29
-5 39 -42 11 -45 44 -88 65 -88 7 0 18 -9 24 -20 6 -11 16 -20 22 -20 6 0 3
10 -8 21 -14 16 -16 23 -6 26 7 3 26 16 41 29 16 13 33 24 38 24 6 0 8 -23 6
-51 -2 -37 0 -50 9 -47 8 3 15 31 18 74 5 58 7 64 14 39 26 -99 31 -110 54
-113 12 -2 22 1 22 7 0 6 6 11 13 11 12 0 29 16 71 68 10 13 21 40 23 60 3 20
7 39 9 41 2 3 -6 15 -18 29 -13 13 -18 22 -13 21 31 -8 132 27 163 57 31 30
48 129 27 160 -19 30 -84 95 -115 117 -24 17 -24 18 -3 13 13 -2 25 -1 28 4 2
4 -10 10 -28 14 -17 4 -39 16 -48 27 l-16 21 1 -23 c1 -14 17 -39 38 -59 20
-19 57 -54 82 -78 51 -47 59 -82 32 -146 -11 -28 -25 -38 -71 -55 -84 -32
-169 -41 -385 -41 -278 0 -399 12 -491 50 -40 17 -98 38 -128 47 -71 20 -104
52 -97 95 5 32 29 59 50 57 6 0 25 -21 41 -47 32 -49 97 -101 129 -102 15 0
16 3 6 15 -7 8 -9 15 -6 15 4 0 -5 11 -19 26 -42 41 -91 179 -78 219 3 11 29
43 57 70 58 57 97 117 87 133 -4 6 -18 -10 -33 -36z m-170 -478 c46 -32 15
-75 -51 -69 -23 2 -49 4 -58 4 -27 2 -51 25 -43 45 14 36 111 49 152 20z m158
-35 c34 -16 69 -40 77 -53 16 -23 15 -24 -14 -28 -17 -3 -34 1 -40 9 -6 7 -20
13 -31 13 -10 0 -17 4 -13 9 3 5 -3 12 -14 16 -11 3 -21 16 -23 28 -2 16 -11
23 -30 25 -16 2 -28 8 -28 13 0 14 47 1 116 -32z m464 -59 c17 -3 -51 -28 -71
-26 -37 4 -69 16 -69 26 0 7 106 7 140 0z m305 -2 c25 -11 26 -16 21 -53 -4
-22 -16 -48 -27 -57 -25 -21 -44 -13 -97 40 -21 20 -38 30 -40 24 -5 -17 -37
-15 -52 3 -10 12 -8 16 11 24 13 5 19 10 12 10 -37 2 -59 -39 -34 -64 12 -12
-3 -33 -46 -63 -39 -28 -49 -28 -67 0 -44 71 -17 125 58 115 l41 -6 -30 14
c-29 14 -29 14 32 15 40 0 67 -5 75 -14 10 -11 19 -10 53 5 48 22 56 23 90 7z
m-78 -118 c18 -17 39 -30 46 -30 7 0 -1 -9 -18 -20 -38 -25 -44 -25 -54 3 -14
38 -22 77 -15 77 3 0 22 -13 41 -30z"/>
<path d="M749 803 c23 -45 120 -141 176 -175 37 -22 46 -23 115 -16 41 4 84
10 95 12 11 3 37 5 58 5 20 1 37 5 37 10 0 11 -128 4 -246 -15 -23 -3 -33 0
-37 11 -4 8 -12 15 -19 15 -7 0 -33 18 -57 40 -24 22 -45 40 -48 40 -8 0 -56
56 -69 83 -8 15 -17 27 -19 27 -3 0 3 -17 14 -37z"/>
<path d="M1245 741 c-9 -15 6 -113 22 -148 18 -38 69 -66 95 -52 37 20 14 126
-39 182 -26 27 -66 36 -78 18z m62 -28 c42 -38 33 -70 -14 -52 -17 6 -23 16
-23 39 0 34 9 37 37 13z m55 -106 c6 -32 -1 -47 -22 -47 -22 0 -44 35 -36 56
9 24 53 17 58 -9z"/>
<path d="M685 696 c-21 -32 -12 -151 14 -186 41 -56 91 -27 91 54 0 72 -25
132 -61 145 -25 9 -31 7 -44 -13z m60 -41 c0 -30 -39 -27 -43 3 -3 20 0 23 20
20 15 -2 23 -10 23 -23z m0 -65 c-3 -5 1 -10 9 -10 11 0 15 -7 12 -22 -3 -13
-5 -31 -5 -40 -1 -22 -34 -24 -50 -4 -7 8 -9 26 -5 43 9 38 13 43 30 43 8 0
12 -4 9 -10z"/>
<path d="M1730 624 c-23 -16 -44 -24 -62 -21 -15 2 -24 -1 -21 -6 6 -10 67 -5
95 7 13 6 15 3 11 -13 -3 -12 -22 -27 -48 -37 -24 -9 -46 -23 -49 -33 -3 -9
-9 -22 -12 -30 -4 -9 -2 -11 5 -6 16 9 110 15 134 8 14 -4 17 -11 13 -29 -4
-14 0 -34 8 -47 32 -48 13 -194 -32 -244 -11 -12 -31 -23 -44 -23 -32 0 -96
-24 -113 -41 -14 -15 -29 -109 -17 -109 4 0 14 21 21 46 15 51 48 79 82 69 13
-4 19 -3 16 2 -4 6 3 8 16 6 16 -3 33 5 53 24 40 37 60 126 49 221 -4 37 -7
81 -7 99 0 18 -5 34 -14 37 -10 4 -12 14 -8 30 4 17 0 28 -15 38 -13 10 -19
21 -15 31 3 9 2 23 -3 31 -8 14 -13 13 -43 -10z m36 -90 c-9 -9 -27 -14 -43
-12 l-28 4 25 11 c14 7 33 12 43 12 17 1 17 0 3 -15z"/>
<path d="M1029 557 c-14 -19 -19 -20 -43 -9 -22 10 -26 9 -26 -3 0 -8 7 -15
15 -15 8 0 15 -4 15 -10 0 -18 38 -11 53 10 12 17 16 18 41 5 41 -22 105 10
77 38 -8 8 -11 6 -11 -6 0 -22 -47 -23 -74 -2 -25 19 -28 19 -47 -8z"/>
<path d="M1901 489 c-13 -10 -30 -19 -38 -19 -8 0 -12 -4 -8 -9 7 -13 45 -5
63 13 23 23 9 36 -17 15z"/>
<path d="M1929 457 c-8 -18 -25 -36 -37 -42 -26 -11 -28 -21 -7 -29 8 -3 15
-1 15 4 0 6 6 10 14 10 15 0 39 51 34 73 -2 10 -9 4 -19 -16z"/>
<path d="M92 452 c-6 -15 -23 -47 -36 -72 -42 -77 -27 -179 30 -200 40 -16 41
-11 5 18 -26 22 -34 38 -38 73 -4 38 1 56 32 118 22 43 34 76 28 82 -5 5 -14
-2 -21 -19z"/>
<path d="M1905 340 c-3 -5 -1 -10 4 -10 6 0 11 5 11 10 0 6 -2 10 -4 10 -3 0
-8 -4 -11 -10z"/>
<path d="M146 286 c-6 -26 6 -70 23 -80 7 -5 7 4 -1 24 -5 17 -8 42 -5 55 6
32 -9 33 -17 1z"/>
<path d="M1910 183 c0 -10 -7 -31 -15 -47 -20 -37 -9 -48 16 -17 20 25 25 66
9 76 -5 3 -10 -2 -10 -12z"/>
<path d="M247 173 c3 -10 10 -24 16 -30 16 -22 -11 -15 -34 8 -22 22 -35 20
-26 -5 9 -23 60 -53 65 -38 2 6 10 12 18 12 20 0 17 11 -11 43 -28 31 -37 34
-28 10z"/>
<path d="M1950 120 c0 -11 -5 -20 -12 -20 -6 0 -8 -3 -4 -7 4 -5 14 1 22 11
16 23 18 36 4 36 -5 0 -10 -9 -10 -20z"/>
<path d="M595 10 c-4 -6 7 -10 25 -10 18 0 29 4 25 10 -3 6 -15 10 -25 10 -10
0 -22 -4 -25 -10z"/>
</g>
</svg>
